<?xml version="1.0" standalone="no"?>
<!DOCTYPE svg PUBLIC "-//W3C//DTD SVG 20010904//EN"
 "http://www.w3.org/TR/2001/REC-SVG-20010904/DTD/svg10.dtd">
<svg version="1.0" xmlns="http://www.w3.org/2000/svg"
 width="2157.000000pt" height="2157.000000pt" viewBox="0 0 2157.000000 2157.000000"
 preserveAspectRatio="xMidYMid meet">
<metadata>
Created by potrace 1.11, written by Peter Selinger 2001-2013
</metadata>
<g transform="translate(0.000000,2157.000000) scale(0.100000,-0.100000)"
fill="#000000" stroke="none">
<path d="M5206 21561 c5 -5 38 -12 74 -15 36 -3 97 -9 137 -13 39 -4 87 -4
105 1 18 4 62 10 98 13 36 3 69 9 74 14 6 5 -89 9 -244 9 -155 0 -250 -4 -244
-9z"/>
<path d="M6660 21550 c-8 -5 -30 -10 -48 -10 -18 0 -72 -9 -120 -19 -48 -10
-122 -22 -164 -26 -57 -5 -78 -11 -78 -21 0 -7 10 -16 23 -18 43 -9 927 -14
927 -5 0 16 -72 39 -124 39 -28 0 -84 9 -124 20 -67 19 -158 36 -242 46 -19 3
-42 0 -50 -6z"/>
<path d="M5910 21531 c-13 -9 -12 -11 1 -16 25 -10 219 -1 222 10 3 13 -203
18 -223 6z"/>
<path d="M9130 21421 c-57 -8 -140 -33 -140 -42 0 -4 35 -10 78 -13 42 -4 91
-12 108 -17 18 -5 114 -14 215 -19 101 -5 209 -13 238 -19 30 -6 57 -8 60 -6
9 10 -35 34 -99 54 -211 66 -321 81 -460 62z"/>
<path d="M11570 21335 c-30 -13 -74 -24 -96 -25 -39 0 -72 -19 -57 -33 3 -4
27 -7 52 -7 25 0 77 -7 116 -15 80 -17 370 -21 360 -5 -3 5 -45 30 -92 56 -76
42 -94 48 -157 50 -58 3 -81 -1 -126 -21z"/>
<path d="M18573 21013 c-18 -7 -16 -30 3 -37 9 -3 40 -6 70 -6 31 0 64 -5 76
-11 26 -14 458 -13 472 1 6 6 4 11 -5 14 -76 22 -120 26 -297 26 -123 0 -203
4 -207 10 -6 10 -90 13 -112 3z"/>
<path d="M11435 18580 c-10 -17 11 -28 65 -35 64 -9 149 -34 190 -56 44 -24
116 -86 109 -94 -4 -3 -57 11 -119 31 l-113 37 -141 -6 c-78 -3 -157 -10 -176
-16 -34 -10 -49 -13 -200 -32 -41 -5 -104 -13 -140 -18 -36 -5 -118 -23 -182
-40 -114 -30 -125 -31 -325 -31 -192 0 -213 -2 -274 -24 -36 -13 -86 -36 -110
-53 -67 -45 -105 -57 -183 -55 -66 1 -114 9 -213 34 -67 17 -158 -12 -262 -81
-47 -32 -133 -82 -190 -112 -121 -63 -214 -145 -254 -226 -15 -28 -37 -62 -49
-75 -22 -22 -120 -68 -146 -68 -6 0 -12 -4 -12 -10 0 -19 62 -10 163 24 94 32
115 35 268 42 169 7 205 3 327 -33 68 -20 364 -13 455 11 51 13 65 13 114 0
72 -19 95 -32 91 -52 -4 -23 -48 -42 -120 -52 -64 -9 -108 -38 -108 -71 0 -73
318 -201 575 -231 44 -5 135 -12 202 -16 124 -7 151 -16 139 -47 -10 -28 -405
-12 -606 25 -108 20 -227 26 -345 18 -180 -12 -289 -23 -302 -31 -11 -7 -93 8
-123 23 -8 4 -15 13 -15 21 0 15 95 24 370 34 77 3 146 8 154 10 25 9 -6 31
-66 48 -137 37 -215 45 -283 28 -123 -31 -231 -43 -345 -37 -138 6 -203 14
-211 27 -12 19 18 37 69 42 29 3 93 10 142 15 186 18 254 98 135 158 -37 20
-61 23 -139 24 -52 0 -108 -4 -125 -9 -17 -6 -69 -19 -116 -30 -47 -11 -110
-26 -140 -35 -39 -11 -100 -16 -210 -16 -150 0 -158 -1 -230 -31 -103 -41
-226 -105 -367 -190 -65 -39 -167 -96 -227 -127 -165 -83 -272 -191 -401 -407
-62 -103 -112 -180 -150 -230 -63 -84 -143 -181 -160 -195 -26 -22 -111 -151
-149 -227 -36 -72 -89 -206 -155 -388 -21 -60 -53 -144 -71 -185 -59 -139
-147 -435 -163 -544 -12 -84 -11 -121 3 -326 6 -85 15 -220 20 -300 17 -265
27 -354 55 -475 15 -66 31 -172 36 -235 5 -63 14 -173 20 -245 11 -141 15
-198 25 -377 6 -104 5 -118 -10 -124 -26 -10 -30 1 -38 84 -14 147 -28 277
-37 337 -5 33 -14 110 -21 170 -6 61 -15 129 -20 153 -6 23 -10 69 -10 102 0
32 -4 69 -9 82 -5 13 -14 42 -20 66 -8 27 -17 42 -28 42 -13 0 -14 -8 -8 -52
4 -29 8 -75 8 -103 0 -55 -19 -220 -27 -233 -5 -9 7 -99 25 -182 23 -106 33
-195 59 -520 26 -331 26 -332 92 -570 10 -36 20 -127 37 -340 6 -69 15 -138
21 -154 5 -16 10 -77 10 -136 0 -113 -3 -123 -61 -247 -29 -61 -64 -224 -54
-250 2 -8 10 -44 15 -81 6 -37 24 -107 40 -157 27 -86 40 -140 62 -265 24
-143 32 -213 58 -505 5 -55 13 -152 19 -215 5 -63 15 -139 20 -167 6 -29 16
-79 22 -110 6 -32 15 -76 19 -98 5 -22 12 -56 15 -75 11 -61 54 -188 81 -243
74 -145 193 -336 234 -372 37 -33 105 -126 132 -180 35 -72 56 -156 63 -265 4
-52 11 -108 15 -125 5 -16 17 -68 26 -115 9 -47 22 -112 29 -145 7 -33 20 -94
29 -135 9 -41 20 -91 25 -110 6 -19 22 -78 37 -130 93 -337 345 -885 503
-1094 59 -77 81 -114 125 -204 47 -94 50 -173 10 -221 -45 -54 -77 -64 -269
-81 -55 -5 -158 -15 -230 -21 -167 -16 -501 -16 -680 0 -214 18 -238 17 -485
-21 -101 -15 -577 -15 -1010 1 -288 10 -398 20 -480 42 -33 9 -274 14 -910 19
-750 6 -883 9 -1000 25 -168 22 -242 22 -400 0 -109 -16 -203 -18 -725 -18
-574 0 -752 6 -860 32 -145 34 -224 37 -350 11 -75 -16 -330 -28 -597 -29
l-238 -1 0 -54 0 -55 328 -5 c180 -3 343 -6 362 -7 19 -1 69 4 110 11 100 18
265 17 315 0 31 -11 160 -15 565 -21 289 -4 611 -12 715 -19 201 -13 311 -7
450 24 108 25 192 20 311 -15 18 -5 421 -11 931 -13 570 -3 920 -8 954 -14
188 -37 170 -37 534 -11 185 13 250 13 590 -1 372 -15 368 -15 480 0 55 8 152
13 215 11 327 -8 975 -3 1084 8 97 10 121 10 127 -1 13 -19 6 -31 -31 -53 -18
-11 -81 -65 -139 -121 -117 -111 -169 -146 -251 -168 -114 -30 -187 -57 -255
-95 -38 -21 -101 -55 -138 -76 -37 -20 -126 -57 -197 -81 -71 -24 -162 -63
-202 -88 -40 -24 -109 -66 -154 -93 -45 -27 -117 -63 -160 -80 -181 -71 -295
-113 -404 -148 -206 -66 -340 -123 -635 -269 -187 -92 -311 -147 -350 -156
-33 -7 -76 -16 -95 -21 -19 -5 -53 -9 -74 -9 -93 0 -209 -43 -354 -132 -74
-45 -149 -72 -232 -83 -195 -25 -213 -31 -450 -150 -253 -127 -325 -172 -410
-259 -36 -37 -89 -83 -118 -103 -46 -32 -63 -38 -135 -44 -153 -15 -260 -33
-282 -49 -5 -4 -39 -17 -74 -29 -61 -21 -65 -21 -115 -5 -28 9 -82 32 -120 51
-182 91 -284 83 -540 -43 -59 -30 -113 -54 -119 -54 -6 0 -41 -9 -77 -19 -36
-11 -99 -29 -140 -41 -70 -20 -187 -58 -290 -95 -68 -24 -226 -106 -306 -158
-72 -47 -173 -96 -234 -115 -19 -6 -82 -13 -139 -17 -170 -10 -355 -70 -476
-154 -61 -43 -217 -171 -228 -188 -4 -7 -39 -38 -77 -68 l-70 -56 0 -145 c0
-135 1 -146 18 -139 9 4 38 10 63 12 38 4 47 2 53 -13 9 -24 -12 -39 -81 -61
l-53 -17 0 -1168 0 -1168 6496 0 6497 0 -8 42 c-7 45 -20 136 -34 248 -4 36
-20 101 -36 145 -31 90 -42 131 -55 225 -5 36 -12 75 -16 88 -4 16 -2 22 8 22
30 0 51 -39 59 -112 18 -159 34 -223 81 -328 25 -54 38 -125 45 -242 l5 -88
53 0 53 0 7 57 c18 141 8 214 -53 373 -51 136 -62 184 -62 276 0 113 -35 176
-125 222 -39 19 -72 27 -150 32 -55 4 -107 10 -116 14 -8 4 -154 8 -325 11
-520 6 -672 29 -788 116 -23 17 -66 48 -96 71 -30 22 -194 110 -365 195 -380
190 -432 222 -630 382 -86 69 -196 158 -245 196 -94 75 -180 149 -241 205 -21
19 -99 91 -175 160 -180 164 -565 550 -679 680 -49 56 -111 126 -136 154 -94
104 -127 144 -215 261 -97 128 -222 312 -296 435 -105 173 -296 591 -324 707
-4 15 -10 33 -14 38 -7 9 -56 156 -96 285 -32 104 -86 449 -86 545 0 105 40
244 92 320 15 22 30 50 34 62 4 11 24 48 45 80 32 50 53 69 139 121 125 77
145 109 150 243 4 79 1 93 -29 164 -18 43 -52 106 -75 139 -233 332 -320 497
-489 926 -71 180 -119 328 -149 460 -8 36 -26 119 -41 185 -15 66 -31 136 -35
155 -5 19 -14 64 -20 100 -6 36 -15 88 -20 115 -5 28 -13 75 -19 105 -15 88
-48 164 -106 245 -114 159 -123 185 -136 390 -5 77 -13 178 -19 225 -5 47 -14
144 -19 216 -5 72 -17 160 -26 195 -22 85 -35 184 -45 359 -5 80 -14 199 -21
265 -22 222 -15 457 21 690 33 214 33 342 0 528 -5 31 -15 83 -20 115 -40 227
-58 470 -40 537 10 38 32 232 31 285 0 14 -4 81 -10 150 -10 122 -7 171 20
305 5 28 14 95 19 150 5 55 16 141 26 190 9 50 18 136 21 192 4 90 2 111 -21
182 -14 44 -26 97 -26 118 0 32 -2 35 -14 23 -14 -16 -43 -85 -58 -140 -12
-45 -30 -197 -27 -230 1 -14 2 -90 2 -170 -1 -212 -20 -315 -51 -278 -6 8 -13
82 -17 173 -14 379 -8 453 45 569 16 37 30 71 30 76 0 41 -71 -47 -121 -150
-49 -101 -65 -153 -109 -347 -6 -23 -10 -67 -10 -97 0 -58 -11 -76 -36 -55
-30 25 -7 277 40 425 29 91 72 161 179 297 82 102 125 180 152 272 52 175 78
234 176 397 33 54 59 101 59 105 0 5 49 81 109 170 89 133 115 181 145 265 58
165 118 276 194 360 37 42 101 115 142 163 41 48 91 106 111 129 19 22 67 84
106 136 141 189 232 252 449 310 41 11 111 39 155 61 70 35 201 81 309 109
155 40 272 38 390 -5 41 -15 93 -32 115 -37 47 -12 70 -31 60 -48 -6 -9 -25
-10 -74 -5 -36 5 -133 9 -216 9 -120 0 -168 -4 -240 -21 -124 -30 -300 -89
-357 -120 -82 -45 -56 -57 53 -24 103 31 117 33 274 43 146 10 332 13 485 8
89 -3 280 19 435 49 120 24 446 126 570 179 123 52 226 93 265 103 125 34 295
50 577 56 211 4 212 4 262 -21 84 -43 102 -92 55 -153 -76 -100 -411 -187
-719 -187 -111 1 -153 5 -350 35 -88 14 -244 15 -310 2 -69 -14 -301 -72 -350
-88 -22 -7 -39 -17 -38 -21 4 -14 84 -17 140 -4 67 15 223 32 293 32 112 0
243 -39 333 -98 83 -55 186 -79 392 -94 66 -5 158 -14 205 -20 47 -6 158 -14
246 -16 148 -5 172 -3 285 21 68 15 155 34 192 42 38 8 81 19 95 24 40 16 116
29 212 39 47 4 88 9 93 9 18 2 4 20 -29 36 -26 12 -48 15 -82 10 -58 -8 -102
-8 -265 1 -86 4 -143 2 -170 -5 -40 -12 -150 -31 -287 -52 -121 -19 -273 -21
-294 -5 -10 8 -15 19 -12 25 9 14 107 41 149 41 43 0 193 32 273 58 75 25 171
73 244 122 245 165 397 230 540 230 116 0 265 -53 338 -120 56 -51 34 -68 -49
-39 -103 37 -198 51 -306 47 -90 -4 -110 -9 -167 -37 -36 -18 -66 -36 -66 -42
0 -11 35 -12 58 0 56 29 159 38 226 20 126 -33 155 -42 201 -61 51 -20 230
-106 275 -131 39 -22 119 -57 169 -74 64 -21 126 -58 266 -157 206 -145 239
-174 325 -281 74 -93 297 -321 338 -347 18 -11 51 -44 72 -73 38 -51 130 -201
130 -212 0 -2 20 -46 44 -96 24 -51 51 -112 59 -137 9 -25 37 -99 62 -165 25
-66 57 -159 71 -207 l24 -87 -21 -78 c-31 -114 -24 -199 31 -328 23 -55 57
-138 76 -185 19 -47 39 -94 43 -105 18 -40 80 -231 90 -280 6 -27 24 -107 41
-176 48 -198 50 -217 79 -674 15 -239 27 -356 44 -420 17 -65 34 -174 48 -320
4 -49 13 -115 18 -145 6 -30 15 -86 21 -123 5 -38 12 -72 15 -77 12 -19 41
-190 55 -320 5 -47 14 -114 20 -150 6 -36 15 -121 21 -190 6 -69 15 -147 20
-175 6 -31 9 -237 7 -545 -4 -536 -8 -570 -62 -693 -14 -31 -44 -110 -65 -174
-42 -124 -54 -144 -72 -126 -14 14 -14 39 -1 143 12 84 15 100 47 210 30 103
37 155 47 360 13 285 14 831 0 905 -15 83 -57 273 -82 375 -12 47 -26 117 -31
155 -5 39 -23 113 -39 165 -49 160 -70 233 -70 243 0 5 -9 28 -19 51 -11 23
-31 67 -45 99 -26 59 -47 87 -65 87 -15 0 -14 -29 5 -86 14 -44 25 -134 54
-439 6 -55 15 -131 21 -170 5 -38 14 -135 19 -215 12 -205 25 -301 54 -413 14
-54 26 -124 26 -157 0 -79 16 -77 23 3 12 131 32 182 62 157 14 -11 15 -34 12
-149 -7 -221 -40 -420 -88 -536 -7 -17 -16 -100 -20 -185 -4 -85 -12 -177 -18
-205 -5 -27 -10 -137 -10 -242 -1 -181 1 -198 25 -270 14 -43 29 -85 34 -94 4
-8 18 -51 30 -94 24 -84 24 -126 0 -395 -6 -69 -15 -183 -20 -255 -17 -221
-28 -318 -40 -360 -23 -79 -70 -348 -70 -399 0 -29 -56 -169 -120 -301 -26
-55 -69 -144 -95 -199 -38 -78 -62 -114 -122 -177 -42 -44 -106 -101 -142
-129 -87 -63 -166 -157 -207 -245 -33 -68 -34 -74 -34 -205 -2 -165 10 -212
75 -311 58 -87 187 -225 264 -282 29 -22 117 -71 195 -110 231 -115 456 -273
639 -447 193 -184 318 -362 404 -576 6 -16 23 -56 36 -89 26 -62 102 -291 135
-405 52 -179 64 -224 93 -340 53 -211 66 -321 78 -661 5 -130 12 -243 17 -250
25 -40 34 -324 16 -504 -17 -169 -29 -223 -72 -314 -48 -100 -74 -135 -199
-267 -53 -55 -118 -126 -144 -157 -43 -51 -94 -97 -226 -202 -21 -16 -109 -84
-197 -149 -87 -66 -161 -122 -164 -125 -23 -26 -148 -91 -215 -111 -99 -29
-473 14 -690 80 -33 10 -87 25 -120 35 -33 9 -82 23 -110 32 -27 8 -70 19 -95
23 -25 5 -72 15 -105 24 -75 19 -195 20 -238 2 -65 -27 -112 -111 -123 -221
-10 -93 -27 -179 -50 -242 -14 -37 -36 -98 -50 -135 -13 -37 -24 -81 -24 -96
0 -16 -4 -42 -9 -58 -5 -16 -12 -100 -15 -187 l-5 -157 4149 0 4150 0 0 1434
0 1433 -44 5 c-25 3 -91 28 -148 55 -57 28 -148 69 -203 92 -55 23 -113 48
-130 56 -28 14 -167 72 -277 116 -26 10 -107 50 -180 88 -220 114 -328 167
-428 211 -52 23 -113 50 -136 61 -23 10 -44 19 -47 19 -3 0 -37 14 -74 31 -37
17 -95 42 -128 56 -206 87 -518 238 -650 315 -38 22 -99 58 -135 79 -36 20
-103 57 -150 82 -47 24 -119 64 -160 89 -93 57 -246 134 -303 152 -51 18 -267
66 -292 66 -10 0 -32 4 -49 10 -29 9 -75 18 -261 55 -139 27 -301 95 -490 206
-95 56 -256 139 -335 173 -36 15 -92 41 -125 56 -77 37 -190 80 -207 80 -8 0
-18 4 -24 9 -21 21 -402 141 -524 166 -36 7 -112 23 -170 35 -58 12 -126 26
-151 30 -65 12 -186 51 -325 106 -66 25 -144 54 -174 64 -30 10 -71 25 -90 33
-19 8 -69 27 -110 43 -41 15 -102 39 -135 54 -33 15 -70 30 -81 34 -46 14
-190 98 -222 129 -41 40 -75 112 -96 202 -8 39 -29 110 -46 159 -24 73 -30
106 -30 176 0 81 2 90 36 146 19 32 66 91 102 130 76 80 147 164 181 212 24
34 151 252 151 258 0 2 20 51 44 108 73 171 97 249 161 538 16 72 21 103 46
273 14 94 27 249 37 425 7 131 24 224 64 371 6 20 7 60 3 90 -4 30 -9 134 -11
232 -5 170 -4 180 20 247 29 80 45 112 92 190 58 95 159 370 175 475 4 28 15
95 23 150 8 55 21 116 27 135 9 24 15 181 20 515 4 295 12 505 19 545 7 36 14
154 17 262 6 278 -12 362 -112 508 -79 115 -101 169 -109 265 -4 44 -11 125
-16 180 -5 55 -13 181 -19 280 -6 99 -13 203 -16 230 -4 28 -10 183 -15 345
-5 162 -13 342 -18 400 -10 135 -3 176 38 213 25 23 38 27 59 22 40 -10 202
-25 341 -31 151 -6 184 -19 211 -82 18 -42 19 -89 19 -1126 0 -970 -2 -1086
-16 -1115 -22 -44 -56 -64 -126 -72 -102 -12 -137 -72 -82 -138 35 -41 53 -51
154 -75 75 -19 117 -22 208 -17 13 0 37 14 53 30 41 41 38 81 -13 204 l-43
102 -3 1010 c-2 706 1 1034 8 1091 26 185 94 225 340 202 69 -6 325 -14 570
-18 481 -8 567 -15 627 -53 115 -73 121 -111 122 -831 1 -302 5 -554 9 -560 4
-6 9 -216 12 -466 5 -435 6 -456 25 -482 25 -34 40 -34 90 0 67 47 70 60 68
287 -2 110 -6 576 -10 1035 l-8 835 -22 42 c-13 23 -43 58 -68 79 -36 29 -45
43 -43 63 4 37 52 39 142 8 132 -46 149 -49 222 -43 97 9 162 9 294 -3 63 -5
239 -10 390 -11 151 -1 295 -6 320 -11 102 -22 127 -22 203 1 67 20 89 22 184
16 59 -4 168 -7 240 -7 83 0 156 -6 195 -16 88 -21 939 -44 1037 -28 67 11 71
1 71 -181 0 -116 5 -179 21 -261 25 -124 35 -407 47 -1303 l7 -515 29 -96 c43
-142 30 -156 -75 -86 l-64 42 -584 -3 c-550 -3 -587 -4 -628 -22 -43 -19 -55
-41 -30 -57 6 -4 68 -11 137 -16 157 -9 184 -9 300 -1 99 6 152 -1 270 -39 57
-18 91 -21 270 -22 202 -1 206 -2 302 -33 131 -43 175 -41 220 10 40 46 42
198 4 323 -11 34 -16 96 -17 195 0 80 -5 204 -11 275 -5 72 -13 301 -19 510
-5 209 -14 506 -19 660 -12 324 -13 457 -5 575 5 79 3 89 -22 140 -19 38 -42
64 -71 83 l-43 29 -439 3 c-242 2 -445 7 -452 11 -26 16 -191 26 -583 35 -220
4 -452 11 -515 14 -163 8 -968 25 -1695 36 -752 11 -1215 24 -1395 39 -217 19
-489 12 -628 -16 -19 -3 -43 -2 -55 4 -12 5 -36 15 -53 21 -40 16 -80 53 -103
99 -36 71 -50 136 -81 372 -5 36 -14 94 -20 130 -6 36 -15 103 -20 148 -5 46
-12 94 -15 105 -26 90 -62 195 -96 274 -21 51 -57 137 -80 191 -22 53 -55 127
-74 163 -43 85 -85 191 -119 302 -30 97 -60 151 -201 367 -53 80 -117 188
-143 240 -103 209 -203 331 -417 510 -42 36 -85 72 -94 80 -9 8 -30 25 -46 38
-17 13 -89 80 -161 150 -113 110 -146 136 -252 196 -121 69 -226 143 -313 221
-70 62 -178 115 -282 139 -70 16 -155 68 -228 139 -116 113 -268 210 -367 233
-39 10 -107 46 -179 96 -289 201 -269 193 -559 214 -50 4 -74 2 -79 -6z m-123
-310 c137 -20 264 -76 353 -155 41 -36 46 -44 29 -45 -18 0 -107 29 -208 69
-107 42 -174 51 -385 51 -164 0 -216 3 -245 15 -39 16 -47 38 -18 51 9 5 71 9
137 10 66 1 145 6 175 11 30 5 62 8 70 7 8 -1 50 -7 92 -14z m-302 -188 c206
-9 218 -10 300 -41 47 -18 95 -42 108 -55 l23 -23 -268 4 c-147 2 -297 8 -333
14 -42 7 -126 9 -235 5 -247 -10 -280 -10 -385 2 -166 20 -214 36 -194 69 8
14 29 19 88 24 42 4 80 10 83 13 9 8 526 1 813 -12z m-1615 -225 c17 -7 39
-18 50 -24 l20 -13 -20 -16 c-15 -11 -31 -14 -60 -9 -22 4 -68 10 -102 14 -76
8 -95 22 -62 45 28 19 128 21 174 3z m-726 -643 c-58 -64 -261 -210 -323 -234
-40 -15 -41 6 -1 54 68 83 315 240 339 216 6 -6 1 -19 -15 -36z m-410 -25
c-20 -38 -84 -121 -117 -152 -21 -20 -49 -32 -98 -43 -68 -14 -174 -19 -174
-9 0 16 63 58 127 85 77 32 112 53 184 111 24 20 51 39 59 41 24 8 33 -8 19
-33z m1076 -79 c13 -21 -16 -38 -73 -44 -31 -3 -86 -10 -122 -16 -36 -5 -103
-14 -149 -20 -46 -5 -86 -12 -88 -14 -7 -7 -63 15 -63 24 0 17 30 29 125 49
141 28 139 28 257 30 65 0 109 -3 113 -9z m826 -16 c11 -14 10 -18 -6 -30 -10
-8 -24 -14 -31 -14 -6 0 -60 -16 -118 -35 -59 -19 -120 -35 -135 -35 -68 0
-83 62 -21 92 19 9 62 18 95 19 33 0 71 5 85 9 45 15 117 11 131 -6z m-518
-105 c41 -18 60 -64 53 -121 -6 -40 -3 -54 10 -69 21 -24 31 -24 80 0 43 21
150 51 182 51 25 0 44 -23 36 -44 -8 -22 -132 -86 -166 -86 -35 0 -78 -17 -78
-30 0 -18 31 -24 66 -11 32 11 40 9 124 -31 118 -56 113 -83 -20 -108 -145
-27 -287 -6 -415 63 -85 45 -82 62 20 102 55 21 81 36 83 49 9 47 -56 40 -228
-21 -338 -122 -385 -130 -650 -108 -208 18 -382 -67 -524 -254 -74 -98 -89
-130 -90 -196 -1 -46 -7 -68 -25 -95 -73 -105 -134 -180 -182 -223 -188 -169
-247 -241 -338 -410 -94 -176 -158 -255 -193 -236 -25 14 -23 40 9 85 80 117
107 161 129 213 69 160 142 255 254 331 64 44 170 151 192 195 36 70 67 217
92 430 18 147 42 217 96 278 37 41 101 66 250 96 30 6 106 32 169 57 82 33
122 44 145 41 190 -32 244 -31 401 3 62 14 149 28 238 39 37 4 70 11 74 15 11
10 180 7 206 -5z m2645 -110 c92 -20 122 -32 128 -51 7 -23 -12 -48 -35 -48
-9 0 -21 -4 -26 -8 -6 -5 -30 -14 -55 -21 -25 -7 -65 -24 -89 -37 -54 -30 -76
-30 -95 -2 -22 31 -22 135 1 160 19 21 95 24 171 7z m-743 -59 c4 -6 1 -17 -5
-25 -10 -12 -42 -15 -151 -15 -138 0 -157 5 -145 35 4 12 33 15 150 15 90 0
147 -4 151 -10z m-2711 -305 c-1 -17 -63 -53 -117 -68 -29 -8 -88 -21 -132
-30 -95 -17 -183 -56 -245 -106 -72 -58 -141 -104 -147 -97 -3 3 2 17 11 30
51 78 132 146 246 206 63 33 89 41 200 61 30 5 57 12 59 15 10 9 126 -1 125
-11z m-1140 -409 c34 -18 73 -36 88 -40 15 -3 32 -15 38 -25 32 -61 -80 -105
-165 -64 -48 23 -54 16 -109 -142 -24 -71 -54 -152 -64 -180 -11 -27 -30 -74
-42 -104 -44 -111 -73 -153 -135 -195 -78 -53 -167 -21 -94 33 55 41 87 79
131 154 69 115 133 272 159 387 32 141 68 210 111 210 12 0 49 -15 82 -34z
m-890 -853 c3 -21 6 -67 6 -103 0 -36 9 -99 20 -140 11 -41 20 -89 20 -106 0
-31 -69 -186 -89 -198 -6 -4 -11 -22 -11 -40 0 -30 -15 -56 -32 -56 -5 0 -8
30 -8 68 1 37 -2 123 -5 192 -4 74 -3 139 3 160 6 19 18 73 28 120 16 80 40
140 55 140 3 0 9 -17 13 -37z m396 -31 c42 -21 80 -75 80 -113 0 -39 -16 -72
-75 -159 -36 -52 -58 -99 -74 -155 -13 -44 -38 -127 -57 -185 -144 -451 -152
-470 -184 -470 -24 0 -50 47 -50 89 0 39 19 79 40 86 28 9 36 32 94 250 51
194 65 285 68 438 l4 137 -24 0 c-28 0 -39 25 -21 47 44 52 132 68 199 35z
m-346 -2074 c15 -24 29 -86 48 -218 6 -41 10 -163 10 -270 -1 -107 -3 -307 -4
-445 -1 -145 3 -284 10 -330 6 -44 19 -168 28 -275 14 -165 14 -205 3 -265
-15 -86 -16 -102 -6 -140 4 -16 15 -106 23 -200 9 -93 19 -213 24 -265 5 -52
14 -142 21 -200 11 -97 13 -234 7 -450 -2 -77 1 -95 35 -190 44 -120 61 -185
76 -285 16 -105 34 -325 27 -332 -10 -10 -38 20 -54 57 -18 45 -55 189 -77
305 -9 50 -28 135 -42 190 -14 55 -30 118 -35 140 -11 47 -22 210 -37 540 -6
132 -16 250 -21 263 -6 13 -10 42 -10 65 0 41 -19 144 -38 209 -42 140 -40
227 8 398 26 95 30 125 25 175 -3 33 -10 98 -15 145 -4 47 -14 132 -20 190
-10 88 -9 226 1 440 4 84 -14 606 -23 657 -16 95 3 142 36 91z m8513 -1250
c20 -25 62 -108 90 -175 38 -93 38 -195 -1 -348 -27 -106 -28 -118 -27 -349 1
-136 6 -255 12 -275 12 -42 6 -353 -10 -476 -5 -44 -13 -111 -17 -148 -6 -65
-22 -92 -42 -72 -4 3 -10 196 -14 428 -4 232 -12 474 -18 537 -13 130 -24 782
-15 848 6 42 23 54 42 30z m-12430 -8470 c52 -48 182 -208 230 -283 34 -53 51
-105 36 -105 -15 0 -122 108 -178 179 -27 35 -58 73 -69 85 -33 37 -92 120
-98 138 -4 9 -4 19 -1 22 14 14 36 4 80 -36z m-1587 -268 c164 -55 562 -282
537 -306 -10 -11 -123 30 -244 87 -57 27 -105 49 -109 49 -3 0 -56 24 -117 54
-97 46 -148 67 -205 82 -30 8 -7 39 33 45 22 3 41 7 43 8 1 0 29 -8 62 -19z"/>
<path d="M8645 16831 c-33 -10 -85 -28 -115 -41 -30 -12 -81 -30 -112 -41 -32
-10 -68 -23 -80 -30 -63 -32 -109 -110 -55 -93 12 3 33 14 47 23 39 26 66 37
215 85 145 46 175 53 288 62 87 8 92 30 10 38 -32 3 -76 7 -98 10 -23 3 -65
-3 -100 -13z"/>
<path d="M7085 15166 c-17 -12 -15 -14 24 -18 47 -4 62 5 32 21 -26 14 -33 14
-56 -3z"/>
<path d="M0 17646 l0 -43 48 -7 c71 -11 265 -26 472 -36 102 -5 241 -14 310
-20 179 -15 413 -28 740 -39 157 -6 294 -13 305 -17 31 -9 244 -27 300 -24 99
5 253 2 400 -9 83 -6 290 -15 460 -20 193 -6 323 -14 345 -22 23 -8 193 -17
490 -25 250 -8 505 -19 565 -24 108 -11 389 -19 1345 -39 497 -10 570 -13 660
-32 99 -19 194 -31 250 -30 607 12 716 17 763 36 26 11 59 30 75 43 l27 23
-35 -6 c-137 -23 -167 -27 -185 -26 -11 1 -175 6 -365 11 -209 5 -398 15 -480
25 -93 12 -275 20 -585 26 -247 5 -526 13 -620 19 -395 22 -514 30 -590 39
-154 18 -250 31 -270 37 -22 6 -153 20 -340 34 -66 5 -163 14 -215 20 -52 6
-309 14 -570 18 -261 4 -482 11 -492 15 -9 5 -151 13 -315 18 -164 5 -359 14
-433 19 -74 6 -187 14 -250 18 -63 4 -122 11 -131 15 -20 10 -725 28 -1204 32
-203 2 -394 6 -422 9 l-53 6 0 -44z"/>
<path d="M14462 16994 c-62 -16 -112 -41 -112 -54 0 -21 64 -51 95 -45 119 21
210 22 750 14 325 -5 640 -13 700 -19 61 -5 164 -15 230 -21 199 -19 668 -9
692 14 19 20 -32 37 -111 37 -45 1 -110 8 -146 16 -101 24 -192 37 -230 33
-93 -10 -792 8 -840 21 -19 5 -246 11 -505 14 -382 3 -480 2 -523 -10z"/>
<path d="M17763 16884 c-11 -5 -18 -31 -10 -35 1 -1 65 -5 142 -9 585 -33 964
-44 984 -31 31 20 -7 39 -92 45 -284 23 -992 43 -1024 30z"/>
<path d="M0 16512 c0 -18 1 -33 3 -34 4 -2 472 -18 702 -24 185 -4 227 -2 258
11 36 15 49 34 25 36 -7 0 -89 4 -183 9 -93 6 -186 12 -205 15 -19 3 -162 8
-317 12 l-283 6 0 -31z"/>
<path d="M1965 16441 c-11 -4 -109 -11 -218 -15 -204 -7 -230 -11 -224 -30 4
-11 85 -17 497 -35 124 -5 241 -12 260 -16 19 -3 229 -10 465 -15 474 -11 679
-22 740 -40 22 -7 96 -16 165 -20 186 -12 618 -12 625 0 13 21 -68 38 -250 49
-231 15 -265 16 -335 7 -43 -6 -84 -2 -185 20 -186 39 -226 44 -360 50 -66 2
-136 9 -155 15 -20 6 -232 14 -485 19 -247 5 -466 11 -485 14 -19 3 -44 2 -55
-3z"/>
<path d="M6293 16213 c-106 -10 2 -49 157 -57 63 -3 131 -10 150 -16 54 -16
175 -13 189 4 17 20 -2 54 -32 60 -31 7 -413 14 -464 9z"/>
<path d="M16957 15833 c-36 -35 46 -50 256 -45 189 4 223 22 41 22 -79 0 -126
5 -151 15 -36 15 -134 21 -146 8z"/>
<path d="M2565 15630 c-11 -5 -55 -9 -97 -9 -60 -1 -78 -4 -78 -15 0 -8 8 -17
18 -21 23 -10 829 -20 876 -11 28 5 36 11 34 24 -3 15 -23 18 -143 24 -245 13
-589 18 -610 8z"/>
<path d="M0 14671 l0 -80 123 -5 c67 -3 176 -10 242 -16 66 -6 314 -15 550
-19 244 -5 460 -13 500 -20 49 -8 148 -10 325 -6 162 4 304 2 390 -5 74 -7
185 -16 245 -21 61 -6 263 -14 450 -18 343 -9 410 -14 521 -45 45 -13 82 -16
145 -12 260 17 304 18 344 5 56 -17 927 -35 1393 -27 64 1 151 -4 192 -11 251
-42 411 -52 690 -45 235 6 270 13 270 52 0 27 -40 60 -101 83 -96 36 -379 55
-984 69 -872 19 -1147 29 -1225 45 -74 16 -170 20 -1040 45 -584 18 -824 27
-930 38 -58 6 -247 11 -421 10 -174 0 -322 3 -330 8 -16 10 -256 21 -779 34
-195 5 -403 12 -462 15 l-108 6 0 -80z"/>
<path d="M1502 14383 c-32 -13 -46 -69 -54 -213 -11 -185 -11 -210 0 -355 8
-107 16 -136 45 -183 15 -23 36 6 58 81 18 60 20 84 14 156 -4 47 -8 177 -9
287 -2 222 -7 246 -54 227z"/>
<path d="M3424 14248 c-46 -43 -64 -104 -77 -268 -12 -164 -14 -652 -2 -714
12 -58 29 -66 32 -16 5 68 25 185 40 233 25 80 34 152 48 387 7 129 20 252 29
289 18 70 15 96 -15 111 -15 9 -25 4 -55 -22z"/>
<path d="M5291 14238 c-44 -46 -49 -113 -21 -243 10 -43 22 -139 35 -265 2
-19 4 -38 4 -42 1 -5 8 -8 16 -8 12 0 15 17 15 92 0 90 11 176 33 252 6 21 11
74 12 118 0 72 -2 82 -24 99 -30 25 -46 24 -70 -3z"/>
<path d="M19514 13798 c-28 -31 -48 -84 -37 -100 4 -7 11 -98 15 -203 5 -104
12 -291 17 -415 6 -124 14 -367 19 -540 5 -173 14 -333 20 -355 17 -64 20 -98
27 -315 8 -232 -2 -300 -51 -351 -52 -54 -91 -58 -324 -28 -115 14 -116 14
-265 -1 -156 -16 -669 -24 -715 -11 -98 27 -231 49 -279 45 -47 -3 -60 -9 -93
-41 -50 -49 -63 -96 -52 -198 4 -44 7 -116 7 -160 -1 -44 -3 -129 -4 -190 -1
-105 6 -443 15 -680 3 -60 12 -148 22 -195 13 -66 18 -174 25 -480 9 -479 22
-603 69 -645 24 -21 58 -11 65 18 7 35 -14 927 -26 1097 -16 221 -16 813 0
920 22 149 24 265 6 320 -31 94 -5 107 135 69 69 -18 115 -20 600 -25 290 -3
532 -10 541 -15 10 -5 30 -9 45 -9 14 0 67 -16 117 -36 61 -25 95 -34 105 -27
8 4 23 31 33 59 20 52 56 96 127 151 55 44 86 125 77 203 -3 30 -9 152 -14
270 -8 206 -9 218 -38 291 -16 42 -34 105 -39 140 -8 59 -12 988 -4 1139 4 86
-9 219 -25 250 -31 61 -89 84 -121 48z"/>
<path d="M12667 13564 c-4 -5 -72 -11 -150 -15 -144 -7 -278 -26 -377 -53 -30
-9 -72 -16 -92 -16 -51 0 -146 -37 -159 -62 -9 -16 -7 -24 5 -36 12 -13 41
-16 135 -17 98 -2 124 -5 152 -21 62 -37 50 -115 -39 -250 -22 -33 -65 -111
-97 -174 -73 -142 -120 -191 -270 -280 -105 -62 -147 -95 -171 -136 -7 -10
-15 -16 -20 -11 -4 4 5 34 21 67 22 46 45 73 98 117 39 32 101 89 138 126 63
64 87 98 162 237 16 30 34 59 38 65 5 5 9 18 9 30 0 15 -11 8 -47 -35 -91
-107 -259 -273 -334 -330 -118 -91 -177 -156 -217 -240 -35 -74 -36 -77 -40
-225 -5 -194 -1 -219 119 -680 54 -205 74 -445 47 -555 -8 -33 -13 -112 -13
-200 0 -125 4 -155 24 -220 42 -130 89 -271 128 -379 35 -95 41 -106 68 -113
22 -6 38 -22 60 -60 54 -96 50 -174 -12 -211 -22 -13 -36 -31 -43 -55 -16 -58
-62 -131 -134 -211 -36 -40 -66 -77 -66 -81 0 -9 -153 -121 -196 -143 -17 -9
-58 -43 -91 -76 -33 -34 -68 -61 -76 -61 -9 0 -31 9 -49 20 -41 25 -48 25 -48
1 0 -10 21 -36 48 -57 26 -21 49 -42 52 -46 3 -4 24 -14 46 -21 22 -8 68 -33
103 -55 63 -41 129 -60 174 -48 13 3 73 1 133 -4 77 -7 119 -7 143 1 26 9 52
8 120 -6 83 -17 89 -17 141 0 87 28 102 50 54 81 -29 20 -80 30 -209 45 -170
18 -189 23 -193 42 -5 24 42 73 93 98 178 88 341 123 365 79 30 -57 96 8 70
69 -17 43 -53 53 -172 49 -101 -3 -105 -4 -211 -56 -60 -28 -111 -52 -113 -52
-26 0 -101 -51 -154 -105 -97 -99 -145 -118 -176 -70 -22 34 -9 59 60 106 143
100 277 228 341 324 46 69 56 92 70 168 13 68 14 95 5 121 -6 19 -12 67 -13
107 l-2 73 35 17 c30 14 34 21 32 45 -4 29 -39 154 -72 254 -10 30 -21 69 -25
85 -3 17 -32 91 -62 165 -55 130 -57 138 -57 225 0 108 11 235 26 290 5 22 27
85 48 140 52 136 57 176 31 245 -11 30 -37 80 -57 110 -56 84 -92 166 -119
275 -21 82 -25 121 -25 243 0 180 20 262 76 311 19 17 41 31 48 31 7 0 25 9
40 21 19 15 34 19 56 14 39 -9 71 12 107 68 45 68 63 75 63 22 0 -69 -61 -179
-168 -299 -24 -28 -51 -64 -59 -80 -9 -17 -22 -35 -30 -41 -7 -5 -20 -37 -28
-69 -14 -55 -14 -65 4 -150 26 -119 43 -157 99 -227 45 -56 79 -114 121 -209
15 -36 21 -41 26 -27 12 30 -22 147 -72 244 -25 51 -43 96 -39 100 9 10 73
-25 112 -62 21 -20 37 -50 49 -90 42 -144 64 -174 152 -201 32 -9 76 -26 98
-37 22 -11 58 -24 80 -28 106 -19 150 -31 217 -59 70 -30 78 -31 178 -26 258
11 603 42 700 61 81 16 220 79 292 133 149 109 206 146 251 163 56 21 148 25
206 10 20 -6 72 -16 116 -23 90 -14 118 -33 162 -106 28 -47 28 -47 31 -18 4
36 -22 108 -55 146 -16 19 -44 35 -81 46 -70 21 -94 40 -72 54 23 15 81 30
115 30 64 0 126 -62 162 -160 52 -145 86 -250 98 -305 7 -33 17 -78 23 -100 6
-22 15 -58 19 -80 10 -45 40 -58 35 -15 -2 14 -7 72 -12 130 -5 58 -14 130
-20 160 -6 30 -15 84 -20 120 -5 35 -18 91 -29 125 -43 138 -61 228 -61 306 0
70 -22 132 -56 153 -20 14 -30 14 -69 4 -61 -16 -69 -7 -50 65 16 64 20 252 6
289 -5 13 -16 57 -26 98 -20 89 -45 170 -59 188 -18 24 -23 -3 -14 -68 6 -36
12 -156 15 -267 4 -199 4 -202 -20 -250 -30 -58 -49 -76 -151 -142 -69 -45
-85 -51 -130 -51 -29 0 -57 5 -63 11 -6 6 -19 9 -28 7 -15 -3 -14 -6 6 -32 28
-35 76 -56 129 -56 45 0 178 33 221 55 33 17 85 20 94 4 13 -19 -4 -54 -35
-72 -54 -32 -165 -57 -252 -57 -74 0 -89 4 -135 30 -28 16 -70 52 -94 80 -23
27 -50 50 -59 50 -9 0 -34 18 -55 40 -22 23 -76 65 -120 94 -280 185 -317 205
-388 206 -40 0 -173 36 -193 52 -7 5 -43 18 -80 29 -89 26 -426 37 -591 20
-61 -6 -118 -9 -127 -5 -20 8 -30 45 -22 80 4 14 27 47 51 73 72 77 185 104
515 119 85 4 160 10 166 14 5 4 127 8 270 9 319 2 380 -10 464 -88 30 -28 36
-29 50 -3 6 11 17 20 24 20 17 0 62 51 71 80 17 52 -57 145 -153 194 -45 23
-181 66 -209 66 -50 0 -268 49 -320 72 -45 20 -102 20 -252 2 -57 -6 -88 0
-199 42 -49 19 -81 24 -155 24 -51 0 -97 -4 -103 -8 -5 -5 -31 -17 -59 -27
-27 -10 -63 -29 -78 -42 -36 -30 -57 -30 -57 0 0 45 92 104 215 137 97 26 122
24 295 -21 25 -6 122 -14 215 -18 162 -6 173 -7 230 -36 55 -27 72 -30 210
-37 181 -9 274 -20 336 -40 26 -9 115 -60 197 -114 192 -126 237 -154 251
-154 20 0 12 17 -32 66 -74 85 -152 187 -201 264 -84 130 -158 194 -249 212
-55 11 -67 11 -220 2 -74 -4 -109 -2 -145 10 -106 36 -167 46 -265 46 -56 0
-129 5 -162 11 -154 27 -327 44 -338 33z m-300 -591 c-9 -9 -19 -14 -23 -11
-10 10 6 28 24 28 15 0 15 -1 -1 -17z m-122 -417 c19 -8 35 -22 35 -30 0 -19
-26 -45 -57 -57 -68 -26 -104 4 -79 66 17 40 42 45 101 21z m800 -53 c28 -5
68 -19 91 -30 22 -12 78 -34 124 -48 113 -37 220 -101 220 -131 0 -8 -2 -14
-4 -14 -4 0 -55 21 -111 45 -167 72 -280 97 -440 98 -113 1 -201 -14 -335 -57
-198 -64 -303 -123 -412 -230 -37 -36 -72 -66 -77 -66 -6 0 -22 -11 -37 -25
-30 -28 -56 -32 -73 -11 -10 12 -10 20 0 38 7 13 12 30 11 39 -3 16 35 44 156
119 29 18 87 70 128 115 85 94 161 136 273 154 35 6 66 13 70 16 8 9 358 -1
416 -12z m-955 -108 c7 -8 9 -23 5 -36 -10 -32 -85 -109 -105 -109 -46 0 -24
77 36 130 39 34 47 36 64 15z m628 -157 c21 -21 13 -46 -20 -71 -49 -36 -66
-39 -88 -17 -25 25 -14 52 33 80 37 23 58 25 75 8z m413 -92 c17 -36 4 -76
-24 -76 -45 0 -60 37 -31 78 20 29 42 28 55 -2z m-671 -6 c15 -15 20 -33 20
-76 0 -61 6 -77 47 -120 47 -49 97 -83 164 -110 85 -33 165 -46 331 -51 152
-4 131 -10 293 77 53 28 67 31 118 27 31 -3 57 -1 57 4 0 15 -78 49 -114 49
-20 0 -55 -4 -78 -10 -196 -43 -486 -55 -590 -23 -32 10 -58 21 -58 24 0 4 69
7 153 8 117 1 167 6 217 21 36 10 94 24 129 30 36 6 86 22 113 36 28 14 65 24
89 24 49 0 109 -19 109 -35 0 -6 25 -23 55 -39 153 -77 167 -139 55 -239 -77
-69 -174 -112 -309 -138 -31 -5 -81 -15 -111 -20 -89 -17 -347 -22 -399 -8
-67 17 -250 114 -306 160 -27 22 -56 44 -66 49 -9 5 -31 31 -49 57 -31 47 -31
50 -28 144 3 105 11 122 73 160 39 24 60 24 85 -1z m210 -170 c0 -5 -13 -10
-30 -10 -16 0 -30 5 -30 10 0 6 14 10 30 10 17 0 30 -4 30 -10z m1157 -65 c8
-23 -26 -55 -58 -55 -37 0 -54 28 -32 52 20 23 81 24 90 3z"/>
<path d="M9805 13381 c-16 -5 -66 -16 -110 -26 -175 -38 -234 -62 -361 -147
-45 -30 -138 -82 -206 -116 -128 -63 -207 -122 -233 -173 -8 -15 -15 -51 -15
-79 0 -43 5 -55 33 -84 33 -34 56 -40 282 -75 57 -9 315 -7 347 2 15 4 42 20
60 36 18 15 47 31 63 35 17 4 37 13 45 21 23 19 139 97 193 128 76 45 116 84
123 124 8 41 -3 67 -47 117 -45 52 -86 66 -189 66 -89 0 -150 8 -150 19 0 3
13 15 28 26 23 17 48 21 172 26 132 5 152 4 223 -17 43 -13 108 -40 145 -60
112 -61 116 -63 146 -66 42 -4 42 14 -1 37 -21 11 -54 34 -73 50 -91 78 -186
130 -270 147 -68 14 -171 18 -205 9z m13 -293 c34 -34 -40 -71 -238 -118 -74
-18 -178 -49 -230 -70 -52 -20 -121 -45 -153 -55 -55 -17 -59 -17 -75 -1 -16
16 -16 18 3 32 51 39 234 116 385 163 19 6 69 21 110 35 81 26 179 33 198 14z"/>
<path d="M1445 13306 c-20 -15 -15 -43 10 -52 18 -7 45 12 45 32 0 22 -35 35
-55 20z"/>
<path d="M8798 13224 c-9 -9 -72 -23 -153 -34 -157 -22 -182 -29 -240 -63 -70
-41 -119 -90 -168 -167 -61 -98 -72 -197 -12 -110 50 73 147 154 241 202 82
42 206 88 236 88 7 0 29 8 48 18 19 11 48 22 63 26 19 5 27 12 25 24 -3 17
-29 28 -40 16z"/>
<path d="M14566 12668 c-10 -84 -7 -287 4 -309 13 -23 36 -25 44 -3 3 9 6 75
6 147 0 97 -4 142 -16 174 -9 24 -20 43 -24 43 -4 0 -10 -24 -14 -52z"/>
<path d="M8258 12666 c-25 -19 -63 -59 -84 -88 -70 -96 -87 -128 -66 -128 14
0 212 222 212 237 0 20 -13 16 -62 -21z"/>
<path d="M14183 12673 c14 -72 37 -146 51 -168 9 -13 16 -42 16 -64 0 -56 -34
-93 -112 -121 -85 -30 -118 -55 -118 -87 0 -25 1 -26 50 -20 54 7 126 41 183
88 25 20 41 47 55 89 20 58 20 61 2 117 -18 58 -60 143 -88 176 -24 27 -45 22
-39 -10z"/>
<path d="M9640 12380 c-14 -4 -49 -8 -79 -9 -30 -1 -82 -7 -115 -15 -34 -8
-95 -20 -136 -27 -112 -19 -150 -33 -342 -126 -71 -35 -163 -86 -206 -114
-100 -67 -214 -153 -231 -173 -7 -9 -19 -16 -27 -16 -13 0 -34 -25 -160 -191
-43 -58 -82 -97 -116 -118 -53 -33 -141 -61 -193 -61 -16 0 -47 -5 -68 -11
-21 -5 -81 -11 -133 -13 -67 -2 -100 -7 -110 -18 -41 -41 38 -73 162 -64 321
20 316 20 390 60 38 21 85 51 104 66 52 40 135 80 169 80 16 0 41 4 55 10 84
31 361 13 581 -38 165 -39 200 -44 260 -38 33 4 107 10 165 15 145 12 168 18
246 62 63 35 128 68 302 151 81 39 114 81 120 154 4 43 1 54 -10 54 -10 0 -19
22 -28 73 -14 75 -38 123 -86 171 -48 47 -164 118 -218 132 -55 15 -254 17
-296 4z m234 -101 c123 -23 261 -102 290 -167 22 -48 19 -140 -5 -155 -14 -9
-30 4 -90 65 -60 61 -90 84 -159 116 -137 65 -173 72 -354 72 -166 0 -196 -5
-368 -58 -82 -26 -181 -75 -233 -117 -79 -62 -338 -225 -359 -225 -14 0 -4 25
25 61 57 72 255 208 420 289 106 52 192 81 294 100 33 6 76 15 95 19 53 13
376 12 444 0z m-534 -264 c17 -20 7 -41 -32 -65 -40 -24 -84 -26 -92 -4 -7 18
-2 29 27 62 24 26 78 30 97 7z m402 -52 c20 -18 24 -63 8 -93 -16 -30 -110
-54 -124 -31 -7 10 22 111 36 129 15 17 58 15 80 -5z m261 -1 c8 -9 20 -30 26
-46 9 -21 16 -26 29 -21 9 4 30 11 46 16 28 8 28 8 11 -11 -10 -11 -27 -22
-39 -26 -53 -17 -146 -66 -201 -105 -85 -63 -104 -73 -160 -94 -47 -17 -191
-35 -280 -36 -65 -1 -191 18 -227 34 -18 8 -61 25 -96 37 -34 13 -64 26 -67
30 -3 4 -44 5 -93 2 -73 -4 -90 -2 -101 12 -12 15 -11 20 12 44 15 16 27 34
27 40 0 20 63 52 103 52 54 0 120 -65 87 -85 -19 -12 -9 -23 43 -45 90 -39
154 -49 312 -50 188 0 257 17 360 89 66 46 70 51 75 94 3 25 14 55 24 66 24
27 86 28 109 3z"/>
<path d="M10109 11649 c-200 -127 -276 -171 -334 -192 -110 -40 -314 -107
-375 -122 -65 -17 -264 -37 -350 -35 -25 0 -147 3 -272 6 -201 4 -230 3 -252
-12 -14 -9 -23 -20 -20 -25 3 -5 42 -9 87 -9 45 0 107 -7 137 -16 93 -25 218
-37 390 -37 303 1 444 26 719 128 122 45 238 128 297 212 26 38 67 94 91 126
69 92 64 91 -118 -24z"/>
<path d="M16600 11513 c-89 -4 -199 -23 -246 -43 -70 -30 -81 -79 -26 -117 23
-16 58 -19 262 -25 129 -4 305 -12 390 -18 85 -6 173 -10 195 -9 96 3 246 1
325 -6 79 -6 87 -5 120 17 67 45 49 103 -46 148 l-62 30 -264 0 c-145 0 -289
4 -319 9 -58 10 -239 18 -329 14z"/>
<path d="M19737 11380 c-67 -68 -88 -95 -85 -112 6 -44 34 -31 90 44 30 40 69
88 86 107 36 37 40 51 15 51 -10 0 -57 -40 -106 -90z"/>
<path d="M16074 11255 c-41 -28 -46 -60 -39 -266 5 -163 7 -574 5 -971 0 -51
4 -246 10 -433 6 -187 14 -451 18 -587 6 -228 9 -249 28 -275 33 -45 70 -58
147 -55 79 4 521 7 557 4 30 -3 164 12 205 23 17 4 43 17 58 28 25 17 39 19
110 13 96 -8 210 -21 287 -34 117 -21 159 -24 195 -18 47 9 44 34 -8 60 -67
32 -107 39 -297 47 -102 5 -213 11 -248 15 -59 5 -64 4 -96 -24 l-33 -29 -64
14 c-89 21 -335 32 -449 21 -142 -14 -154 -14 -192 10 -53 33 -82 101 -72 167
7 46 7 177 2 660 -2 116 2 192 12 240 18 86 18 307 0 425 -15 99 -15 149 0
325 6 72 11 162 11 200 0 107 -11 367 -16 392 -12 54 -85 81 -131 48z"/>
<path d="M19653 11172 c-75 -93 -82 -132 -53 -272 31 -152 34 -195 32 -470 -4
-516 -3 -760 5 -1133 l8 -369 24 -19 c27 -22 44 -24 59 -6 8 9 13 166 16 493
2 319 8 509 17 569 17 120 17 418 0 520 -8 44 -13 105 -12 135 6 132 3 402 -5
478 -7 64 -14 87 -29 98 -26 19 -28 19 -62 -24z"/>
<path d="M21332 11097 c-21 -25 -35 -107 -27 -165 19 -152 24 -184 40 -277 28
-166 39 -215 46 -215 14 0 21 84 15 170 -3 47 -9 171 -14 275 -5 105 -12 198
-16 208 -9 20 -29 22 -44 4z"/>
<path d="M12474 10908 c4 -46 11 -96 16 -113 5 -16 13 -61 19 -100 38 -259
226 -608 455 -845 93 -96 119 -130 155 -202 24 -48 47 -85 52 -83 16 11 21 75
9 127 -17 74 -104 201 -190 279 -176 159 -205 187 -241 241 -51 75 -104 207
-119 299 -15 90 -139 479 -153 479 -6 0 -7 -30 -3 -82z"/>
<path d="M7514 10858 c-5 -7 -12 -78 -16 -158 -4 -80 -12 -179 -19 -220 -14
-84 -18 -613 -6 -720 10 -83 27 -142 41 -137 18 6 27 216 32 730 4 403 2 481
-10 498 -11 16 -16 18 -22 7z"/>
<path d="M12421 10419 c-33 -94 22 -276 114 -376 52 -56 89 -126 110 -206 18
-70 18 -100 1 -197 -22 -125 -59 -176 -218 -296 -91 -70 -117 -101 -103 -124
10 -15 39 -12 92 11 26 12 71 29 98 39 190 69 198 75 189 131 -5 28 2 65 25
138 33 106 37 111 87 141 54 31 51 88 -11 210 -18 36 -42 87 -54 114 -13 27
-47 85 -77 128 -30 43 -54 80 -54 83 0 3 -25 45 -56 93 -49 76 -106 141 -126
142 -3 0 -11 -14 -17 -31z"/>
<path d="M14690 10041 c0 -246 2 -290 15 -301 9 -7 19 -10 23 -6 9 9 9 451 1
522 -7 55 -14 74 -30 74 -5 0 -9 -115 -9 -289z"/>
<path d="M14605 9973 c-3 -16 -10 -41 -15 -58 -4 -16 -11 -55 -14 -85 -4 -30
-13 -95 -21 -145 -33 -210 -54 -419 -64 -650 -5 -104 -16 -233 -24 -285 -9
-52 -21 -129 -27 -170 -6 -41 -16 -102 -22 -135 -5 -33 -13 -112 -16 -175 -4
-63 -11 -121 -16 -128 -9 -16 1 -102 13 -102 11 0 41 80 41 108 0 13 20 77 45
144 71 188 80 247 95 593 19 416 25 520 32 531 12 18 29 411 22 502 -7 83 -19
105 -29 55z"/>
<path d="M7366 9563 c3 -71 10 -141 15 -157 5 -16 9 -90 9 -165 0 -133 12
-207 40 -261 17 -32 71 -102 76 -97 2 1 -6 32 -18 68 -16 49 -23 103 -29 229
-4 91 -12 190 -18 220 -5 30 -16 98 -24 152 -9 53 -20 105 -26 117 -25 46 -31
20 -25 -106z"/>
<path d="M10490 9443 c-50 -21 -90 -62 -90 -92 0 -18 18 -42 61 -83 34 -32 68
-58 76 -58 25 0 87 38 138 85 45 41 55 45 100 45 27 0 57 5 65 10 13 8 13 11
0 23 -8 8 -31 20 -50 27 -180 65 -233 72 -300 43z"/>
<path d="M13187 9375 c-20 -47 -20 -96 0 -103 16 -5 33 39 33 86 0 59 -13 66
-33 17z"/>
<path d="M10940 9350 c0 -5 9 -10 20 -10 11 0 20 5 20 10 0 6 -9 10 -20 10
-11 0 -20 -4 -20 -10z"/>
<path d="M12991 9123 c-5 -10 -12 -40 -16 -68 -4 -27 -22 -77 -38 -110 l-31
-60 -3 -295 -2 -295 35 -73 c44 -89 42 -120 -6 -145 -29 -15 -50 -17 -120 -13
-47 3 -112 11 -145 17 -91 16 -446 23 -540 10 -44 -6 -109 -16 -145 -21 -36
-5 -103 -14 -150 -19 -135 -16 -189 -30 -275 -69 l-80 -37 -155 2 c-101 2
-179 8 -222 19 -62 15 -74 15 -135 0 -38 -9 -147 -20 -243 -26 -96 -6 -218
-15 -270 -21 -52 -5 -174 -12 -270 -15 l-175 -5 -160 40 c-206 51 -276 59
-343 37 -51 -17 -107 -67 -99 -89 8 -25 61 -51 119 -59 35 -5 92 -13 128 -18
36 -5 103 -14 150 -20 58 -8 182 -10 395 -5 197 4 329 3 362 -4 58 -12 207
-68 277 -105 94 -50 158 -68 281 -78 238 -20 259 -20 318 -3 63 18 84 39 133
135 41 78 99 132 157 148 102 26 190 12 308 -50 64 -34 138 -62 249 -93 33
-10 118 -18 215 -22 93 -3 172 -11 189 -18 25 -11 35 -11 58 1 16 8 28 18 28
23 0 17 -33 21 -129 15 -74 -5 -111 -3 -152 8 -30 9 -76 21 -104 27 -52 12
-100 40 -172 98 -45 36 -53 62 -27 84 19 15 96 -1 159 -35 37 -20 58 -21 305
-24 249 -3 268 -2 328 18 57 19 66 20 79 7 11 -11 12 -20 5 -33 -18 -33 -71
-77 -130 -109 -73 -39 -87 -70 -52 -117 31 -42 36 -112 20 -303 -6 -77 -14
-169 -17 -204 -6 -81 14 -80 38 1 19 66 81 181 160 298 46 68 61 100 74 160 9
41 28 113 42 160 14 47 29 99 34 116 13 45 -12 141 -76 289 -21 48 -83 235
-100 298 -10 39 -15 107 -15 209 0 124 -4 166 -22 232 -18 68 -20 86 -10 123
14 53 15 90 3 98 -6 3 -14 -2 -20 -12z m-1866 -1288 c209 -31 276 -56 256 -94
-13 -24 -103 -46 -130 -32 -11 6 -41 11 -68 11 -26 1 -73 7 -103 15 -30 8 -93
24 -140 36 -47 12 -96 24 -110 28 -30 8 -39 37 -13 44 22 7 254 1 308 -8z"/>
<path d="M9405 9071 c-22 -10 -59 -38 -83 -63 -63 -65 -216 -271 -251 -337
-42 -80 -89 -234 -126 -416 -9 -44 -21 -97 -26 -118 -12 -46 -3 -97 17 -97 7
0 16 10 18 23 22 104 36 145 80 237 50 103 64 136 85 192 20 53 74 164 106
218 18 30 48 84 67 120 91 170 113 201 161 226 15 8 27 19 27 24 0 15 -31 12
-75 -9z"/>
<path d="M14721 8924 c0 -11 3 -14 6 -6 3 7 2 16 -1 19 -3 4 -6 -2 -5 -13z"/>
<path d="M17990 8835 c-78 -41 -138 -120 -119 -157 44 -81 204 -4 216 104 4
33 1 49 -12 61 -21 22 -31 21 -85 -8z"/>
<path d="M15443 8819 c-51 -32 -40 -79 22 -104 73 -28 431 -40 480 -15 41 21
43 49 5 85 -30 29 -36 30 -158 38 -320 19 -314 20 -349 -4z"/>
<path d="M19588 8793 c-29 -34 -29 -43 -3 -95 48 -97 153 -183 213 -176 32 4
72 58 72 98 0 35 -49 111 -91 142 -67 48 -163 63 -191 31z"/>
<path d="M18204 8755 c-13 -13 -24 -31 -24 -40 0 -14 9 -16 58 -11 31 3 111
10 177 14 120 9 155 16 155 33 0 15 -16 17 -184 22 -157 5 -159 5 -182 -18z"/>
<path d="M19395 8761 c-11 -5 -96 -12 -190 -15 -182 -8 -250 -19 -415 -72 -58
-18 -118 -36 -135 -40 -57 -12 -65 -15 -65 -30 0 -13 13 -15 73 -11 39 2 106
12 147 21 41 9 95 21 120 26 25 5 142 9 260 9 182 -1 222 1 258 16 43 18 68
47 56 66 -7 11 -67 40 -81 38 -4 0 -17 -4 -28 -8z"/>
<path d="M12637 8642 c-17 -56 -25 -231 -11 -266 27 -70 60 84 49 228 -4 53
-10 96 -13 96 -4 0 -15 -26 -25 -58z"/>
<path d="M21533 8683 c-12 -2 -36 -20 -53 -39 -27 -31 -30 -42 -30 -98 0 -39
8 -88 22 -127 20 -58 22 -88 26 -331 3 -220 1 -277 -12 -321 -25 -85 -83 -127
-201 -147 -70 -12 -368 -8 -520 6 -69 6 -188 -9 -230 -29 -35 -16 -96 -81
-111 -116 -29 -68 -27 -180 7 -411 18 -124 22 -319 9 -379 -28 -118 -63 -177
-175 -291 -101 -102 -125 -139 -125 -192 0 -23 17 -23 24 0 5 15 125 102 142
102 3 0 17 9 31 20 59 46 103 10 115 -94 20 -180 61 -241 181 -268 29 -7 77
-11 107 -9 82 4 325 3 593 -4 l237 -6 0 115 0 115 -127 5 c-71 3 -141 6 -158
7 -16 0 -55 -4 -85 -11 -139 -28 -175 -33 -330 -37 -157 -4 -167 -3 -210 19
-59 30 -83 73 -82 146 1 103 67 230 121 232 7 0 56 -40 108 -90 52 -49 99 -90
104 -90 32 0 -12 76 -101 176 -80 90 -116 167 -136 291 -19 115 -30 181 -45
261 -6 31 -13 93 -16 138 -6 105 14 152 79 180 39 17 72 19 348 19 294 0 307
1 373 23 37 13 88 35 112 49 l45 25 0 584 c0 321 -3 583 -7 583 -5 -1 -18 -4
-30 -6z"/>
<path d="M20896 8636 c-25 -21 -43 -25 -150 -31 -205 -12 -358 -10 -431 4 -93
18 -265 29 -288 18 -34 -16 -17 -50 33 -65 119 -35 273 -41 645 -23 227 11
268 16 303 39 18 12 41 14 102 9 94 -7 110 -3 110 29 0 36 -29 44 -167 44
-119 -1 -130 -2 -157 -24z"/>
<path d="M14128 8613 c-12 -29 -23 -117 -38 -313 -24 -313 -59 -518 -106 -628
-8 -18 -23 -60 -34 -93 -51 -150 -155 -318 -335 -539 -68 -84 -101 -147 -124
-240 -12 -47 -43 -128 -69 -180 l-47 -95 1 -110 c1 -114 18 -187 45 -193 8 -1
28 20 45 50 18 29 67 112 111 183 113 187 138 234 179 332 52 127 104 221 191
347 88 127 116 181 185 356 48 122 65 178 94 310 19 89 33 146 51 205 8 28 19
64 24 82 13 43 -7 89 -69 156 -26 28 -53 65 -60 80 -7 17 -12 81 -12 167 0
141 -9 177 -32 123z"/>
<path d="M13846 8614 c-3 -9 -6 -29 -6 -44 0 -16 -4 -32 -10 -35 -5 -3 -10
-31 -10 -61 0 -58 -52 -279 -77 -329 -41 -80 -86 -97 -177 -65 -40 13 -84 20
-137 20 -68 0 -82 -3 -106 -24 -24 -21 -26 -26 -15 -50 11 -25 14 -26 100 -26
62 0 109 -6 152 -20 81 -26 165 -26 206 -1 40 24 81 107 94 187 12 74 13 451
1 458 -5 3 -12 -1 -15 -10z"/>
<path d="M16146 8475 c-9 -9 -17 -17 -18 -18 -1 -1 -5 -168 -9 -372 -4 -203
-11 -425 -16 -492 -4 -67 -4 -334 0 -595 5 -260 10 -580 11 -710 2 -131 7
-239 12 -239 10 -2 29 33 57 106 37 98 47 139 47 197 0 33 5 69 11 80 16 30
17 1625 1 1655 -8 14 -12 78 -12 175 0 126 -3 159 -18 188 -19 40 -42 48 -66
25z"/>
<path d="M18056 8419 c-14 -17 -29 -43 -34 -57 -13 -48 -7 -634 7 -660 6 -12
16 -20 22 -17 5 4 9 130 9 312 0 325 4 362 48 421 l24 32 -25 0 c-16 0 -35
-11 -51 -31z"/>
<path d="M17910 8410 c-39 -39 -64 -137 -61 -245 7 -345 22 -783 31 -885 5
-69 14 -260 19 -425 5 -174 13 -312 20 -328 6 -16 11 -58 11 -95 0 -37 5 -87
11 -112 6 -25 11 -92 12 -150 1 -117 -14 -165 -61 -197 -25 -16 -73 -17 -813
-14 -554 2 -788 0 -793 -8 -4 -6 5 -13 21 -17 15 -3 39 -9 53 -14 48 -16 223
-33 510 -49 96 -6 195 -13 220 -16 51 -7 223 -21 420 -35 74 -5 170 -12 213
-16 62 -4 89 -2 136 14 127 43 186 106 221 237 19 73 20 83 7 141 -8 35 -16
122 -16 194 -2 133 -3 142 -26 195 -7 17 -21 60 -31 97 -15 58 -16 75 -6 113
14 54 16 267 2 327 -5 24 -15 70 -21 103 -6 33 -15 78 -20 100 -15 61 -29 219
-40 440 -14 286 -14 359 0 455 20 131 24 210 12 210 -6 0 -20 -9 -31 -20z"/>
<path d="M19743 8373 c4 -21 16 -76 27 -123 33 -137 37 -186 29 -360 -9 -186
-20 -280 -43 -360 -38 -132 -48 -212 -42 -345 9 -215 36 -471 55 -525 5 -14
15 -50 21 -80 7 -30 16 -71 21 -91 14 -56 11 -109 -12 -200 -45 -183 9 -372
70 -245 21 43 22 54 16 238 -3 106 -5 227 -5 268 0 41 0 116 -1 165 0 50 0
151 0 225 1 157 1 611 0 785 0 66 2 179 6 250 5 104 3 143 -10 195 -9 36 -21
83 -26 105 -25 101 -120 189 -106 98z"/>
<path d="M19650 8330 c0 -5 5 -10 10 -10 6 0 10 5 10 10 0 6 -4 10 -10 10 -5
0 -10 -4 -10 -10z"/>
<path d="M19673 8278 c3 -13 9 -59 13 -103 4 -44 11 -85 16 -92 6 -7 7 -46 3
-90 -17 -218 -6 -310 26 -216 14 41 14 372 0 402 -4 9 -15 31 -24 49 -9 19
-17 42 -17 53 0 10 -5 19 -11 19 -7 0 -9 -9 -6 -22z"/>
<path d="M11714 7754 c-40 -19 -177 -162 -169 -175 4 -5 14 -5 27 2 12 6 64
26 117 44 53 19 127 45 165 59 73 27 163 34 210 16 16 -6 27 -6 31 0 4 6 -22
24 -57 40 -59 28 -71 30 -178 30 -83 0 -124 -5 -146 -16z"/>
<path d="M1090 7743 c0 -9 -7 -39 -14 -67 -8 -28 -19 -85 -25 -126 -5 -41 -15
-100 -21 -130 -22 -106 -31 -187 -46 -390 -8 -113 -19 -266 -26 -340 -6 -74
-12 -188 -12 -253 -1 -114 0 -120 23 -138 21 -17 26 -18 45 -6 16 11 22 29 27
78 4 35 12 109 19 164 6 55 16 165 21 245 5 80 14 201 20 270 6 69 10 161 9
205 -4 189 -3 243 5 296 9 64 -2 209 -16 209 -5 0 -9 -7 -9 -17z"/>
<path d="M3036 7492 c-9 -17 -16 -53 -16 -79 -1 -26 -5 -79 -11 -118 -28 -190
-31 -231 -59 -665 -5 -80 -12 -172 -15 -205 -8 -72 3 -123 31 -142 32 -21 64
10 70 67 3 25 9 68 15 95 10 49 31 535 31 705 -1 143 -13 355 -22 364 -5 4
-15 -5 -24 -22z"/>
<path d="M9170 7457 c0 -38 28 -104 52 -124 26 -21 128 -47 139 -36 15 15 5
29 -37 49 -40 19 -85 60 -127 114 l-27 35 0 -38z"/>
<path d="M4946 7244 c-3 -9 -6 -57 -7 -107 0 -51 -5 -130 -11 -177 -27 -223
-44 -578 -31 -630 14 -52 48 -54 70 -3 15 37 35 314 34 483 0 64 -17 443 -20
448 -5 9 -30 -1 -35 -14z"/>
<path d="M6810 6991 c0 -10 9 -49 21 -86 22 -71 22 -95 4 -380 -8 -118 12
-230 41 -230 17 0 20 10 27 95 5 52 6 178 4 280 -5 179 -6 188 -36 260 -17 41
-31 76 -31 78 0 1 -7 2 -15 2 -8 0 -15 -9 -15 -19z"/>
<path d="M21505 6905 c-92 -65 -214 -145 -221 -145 -15 0 -86 -64 -99 -91 -25
-47 -18 -124 19 -232 19 -54 44 -110 57 -123 47 -51 147 -63 267 -32 l42 11 0
72 c0 52 -4 76 -15 85 -8 7 -15 27 -15 45 0 18 7 38 15 45 12 10 15 46 15 206
0 107 -3 194 -8 194 -4 0 -30 -16 -57 -35z"/>
<path d="M18471 6916 c-15 -18 -11 -228 5 -233 20 -7 34 48 34 132 0 109 -10
136 -39 101z"/>
<path d="M18926 6568 c-17 -99 -24 -138 -45 -231 -18 -78 -20 -105 -12 -129 6
-17 11 -64 11 -105 0 -55 3 -74 12 -71 7 3 16 18 19 34 4 16 15 54 24 84 33
110 41 460 10 460 -7 0 -16 -19 -19 -42z"/>
<path d="M12894 6242 c-14 -9 -161 -254 -175 -290 -6 -15 -35 -80 -66 -145
-54 -112 -62 -145 -28 -117 34 29 127 184 209 351 93 190 105 231 60 201z"/>
<path d="M8524 6172 c4 -28 13 -66 20 -84 13 -29 92 -113 152 -158 91 -70 190
-163 260 -245 57 -67 262 -273 348 -349 38 -33 105 -97 150 -142 117 -117 197
-182 348 -282 207 -138 319 -201 453 -255 39 -16 85 -35 104 -43 95 -42 304
-101 436 -124 39 -7 81 -17 95 -23 16 -7 212 -13 575 -18 609 -7 600 -6 743
-78 34 -17 70 -31 80 -31 23 0 42 19 42 41 0 57 79 79 187 54 96 -23 171 -19
233 13 61 30 75 52 36 52 -13 0 -28 -4 -31 -10 -3 -5 -34 -10 -67 -10 -46 0
-98 12 -212 49 -83 27 -171 55 -196 63 -64 18 -62 45 5 71 102 40 202 93 266
143 73 58 157 103 251 135 35 12 89 35 120 50 74 37 125 39 216 5 85 -30 152
-33 243 -10 43 11 91 15 154 12 83 -3 97 -7 160 -42 123 -68 177 -96 187 -96
35 0 247 -95 312 -140 59 -41 99 -60 126 -60 32 0 31 15 -3 53 -53 59 -253
167 -382 207 -38 12 -81 29 -95 39 -14 9 -84 52 -157 96 -169 101 -173 108
-173 270 0 64 5 125 11 136 12 23 -9 120 -41 191 -24 53 -26 150 -5 228 8 30
15 85 15 121 0 57 -4 71 -30 107 -38 53 -59 64 -100 52 -44 -13 -135 -83 -165
-128 -14 -20 -53 -78 -87 -128 -35 -50 -85 -128 -113 -174 -53 -86 -97 -145
-180 -239 -27 -31 -61 -81 -74 -111 -76 -173 -102 -223 -159 -300 -92 -125
-190 -200 -398 -304 -71 -35 -167 -76 -214 -91 -46 -15 -96 -35 -110 -44 -48
-34 -125 -70 -165 -77 -22 -4 -152 -7 -290 -7 -446 0 -645 38 -1103 207 -163
61 -498 268 -687 426 -115 97 -483 455 -595 580 -75 84 -152 148 -301 248
-121 82 -138 98 -160 155 -25 62 -44 62 -35 -1z"/>
<path d="M14063 6048 c3 -46 10 -96 16 -113 6 -16 24 -75 41 -129 33 -107 53
-156 81 -197 37 -53 116 -219 105 -219 -7 0 -39 30 -71 67 -138 154 -187 191
-220 163 -8 -7 -15 -29 -15 -49 0 -45 61 -168 112 -225 38 -44 123 -95 193
-115 51 -16 99 -35 205 -82 84 -38 200 -62 200 -42 0 25 -64 101 -172 203 -64
61 -132 132 -151 158 -41 57 -277 521 -277 546 0 29 -32 116 -43 116 -6 0 -8
-29 -4 -82z"/>
<path d="M15608 6029 c-108 -4 -202 -11 -210 -15 -19 -12 -218 -27 -313 -25
-241 7 -335 1 -387 -26 -33 -16 -37 -48 -9 -63 12 -6 126 -10 303 -10 221 1
296 4 343 16 33 9 78 19 100 24 22 5 65 16 96 24 31 8 119 18 197 22 141 7
176 14 157 33 -22 21 -90 26 -277 20z"/>
<path d="M19047 5993 c-4 -3 -7 -41 -7 -83 0 -56 4 -81 15 -90 35 -29 46 29
23 127 -12 52 -18 60 -31 46z"/>
<path d="M8110 5718 c-63 -128 -70 -216 -33 -383 16 -71 38 -109 55 -99 5 4 7
17 4 30 -4 13 -7 104 -7 202 -1 154 2 185 20 237 42 122 19 129 -39 13z"/>
<path d="M545 5749 c-16 -4 -146 -7 -287 -8 l-258 -1 0 -32 0 -31 398 6 c325
5 404 9 434 22 22 9 67 15 108 15 40 0 70 4 70 10 0 9 -151 15 -290 11 -30 -1
-75 2 -100 6 -25 5 -58 6 -75 2z"/>
<path d="M3068 5732 c-88 -2 -119 -6 -128 -18 -7 -8 -10 -18 -6 -22 9 -8 1804
-22 3016 -23 875 -1 1114 5 1107 24 -2 6 -21 13 -42 15 -21 1 -45 8 -53 15
-12 9 -432 12 -1896 12 -1035 0 -1933 -1 -1998 -3z"/>
<path d="M13850 5645 c-10 -13 -10 -22 3 -53 24 -56 37 -112 37 -164 0 -91 32
-129 171 -198 123 -62 234 -135 274 -179 104 -115 132 -136 259 -199 70 -35
130 -61 134 -57 6 6 -22 35 -163 165 -153 140 -229 192 -356 243 -19 8 -74 40
-122 71 -79 52 -89 63 -118 122 -24 48 -34 85 -38 138 -9 102 -46 153 -81 111z"/>
<path d="M13730 5420 c-28 -28 -27 -113 1 -160 64 -105 181 -174 409 -240 41
-12 90 -31 108 -42 25 -15 36 -18 45 -9 26 26 -134 131 -293 192 -43 16 -123
62 -168 96 -30 22 -33 30 -29 62 3 20 8 46 12 58 5 15 1 27 -14 42 -26 26 -45
27 -71 1z"/>
<path d="M0 5367 l0 -34 118 -6 c202 -9 575 -11 625 -2 50 8 64 30 25 40 -13
3 -160 10 -328 15 -168 6 -335 13 -372 16 l-68 6 0 -35z"/>
<path d="M3155 5373 c-84 -3 -135 -16 -135 -34 0 -22 88 -29 325 -23 236 5
643 -7 729 -22 25 -4 75 0 131 11 81 16 106 17 221 7 71 -7 278 -16 459 -22
182 -5 353 -14 380 -20 34 -8 137 -10 325 -5 260 5 698 8 813 4 28 0 95 3 147
9 75 7 109 16 164 43 82 40 100 65 40 55 -22 -4 -51 -11 -65 -17 -27 -11 -158
-8 -494 9 -127 7 -245 7 -355 0 -251 -16 -759 -21 -801 -9 -33 10 -1650 22
-1884 14z"/>
<path d="M1466 5361 c-17 -26 28 -32 244 -32 122 0 224 2 227 5 3 3 3 12 0 21
-6 13 -38 15 -236 15 -126 0 -232 -4 -235 -9z"/>
<path d="M12428 5243 c-13 -15 -97 -104 -188 -196 -133 -136 -179 -177 -238
-209 -69 -38 -85 -59 -49 -66 21 -4 138 43 210 86 79 46 129 92 168 155 17 29
52 83 77 121 47 74 66 122 52 131 -5 3 -20 -7 -32 -22z"/>
<path d="M13350 4870 c-14 -4 -46 -8 -71 -9 -52 -1 -64 -8 -48 -28 9 -10 50
-13 170 -13 l158 0 68 -34 c109 -54 185 -88 189 -83 5 5 -3 12 -87 70 -72 50
-133 80 -194 96 -46 12 -148 13 -185 1z"/>
<path d="M11390 4699 c-16 -7 -102 -12 -227 -12 -183 0 -236 -7 -185 -23 9 -3
26 -10 37 -14 39 -17 133 -23 360 -23 261 -1 394 11 433 40 14 10 26 23 26 27
2 14 -414 18 -444 5z"/>
<path d="M12998 4341 c-30 -19 -69 -60 -110 -117 -85 -117 -101 -134 -136
-134 -66 0 -152 -109 -223 -284 -41 -101 -38 -156 8 -156 28 0 54 24 193 184
47 54 101 117 121 140 33 37 190 253 231 317 9 14 18 36 20 50 5 37 -45 38
-104 0z"/>
<path d="M3815 4285 c-121 -25 -242 -67 -344 -118 -103 -51 -134 -77 -91 -77
26 0 261 78 275 91 5 5 15 9 23 9 37 0 234 89 226 102 -6 10 -14 9 -89 -7z"/>
<path d="M597 4244 c-15 -8 -40 -34 -55 -57 l-27 -42 -6 -255 c-3 -140 -8
-262 -11 -270 -7 -17 -21 -169 -22 -243 -1 -47 11 -66 41 -67 16 0 81 57 95
84 24 44 36 123 58 382 5 62 18 145 30 185 12 45 20 104 20 152 0 76 -1 80
-34 113 -38 38 -48 40 -89 18z"/>
<path d="M21490 4090 c-8 -5 -68 -10 -132 -10 -65 0 -118 -4 -118 -8 0 -17 98
-35 213 -39 l117 -4 0 35 c0 34 -2 36 -32 36 -18 0 -40 -5 -48 -10z"/>
<path d="M13525 3675 c-11 -24 -11 -420 0 -600 5 -92 4 -144 -5 -181 -13 -53
-6 -144 10 -144 32 0 63 246 63 500 1 124 -15 260 -35 312 -5 15 -13 51 -17
80 -6 42 -10 49 -16 33z"/>
<path d="M13698 3523 c0 -26 -2 -95 -3 -153 -1 -58 -7 -143 -14 -190 -6 -47
-16 -116 -21 -155 -5 -38 -12 -90 -15 -115 -3 -25 -11 -61 -17 -82 -11 -37 -5
-88 11 -88 4 0 18 35 31 78 12 42 36 118 54 167 l31 90 -1 205 c-1 157 -5 214
-17 245 -22 57 -37 56 -39 -2z"/>
<path d="M14759 3265 c-6 -36 5 -182 15 -197 16 -26 32 -22 46 11 10 24 9 40
-6 90 -17 57 -52 118 -55 96z"/>
<path d="M15400 2830 c0 -61 92 -261 160 -345 22 -27 54 -69 72 -92 34 -45 48
-53 48 -27 0 30 -74 166 -150 279 -15 22 -39 67 -54 100 -45 99 -49 105 -63
105 -7 0 -13 -9 -13 -20z"/>
<path d="M13322 2218 c-14 -14 -17 -613 -3 -622 13 -8 27 14 37 54 9 36 6 531
-2 563 -6 20 -15 22 -32 5z"/>
<path d="M13446 1708 c-16 -81 -16 -89 2 -86 13 2 18 15 20 56 3 52 -13 74
-22 30z"/>
</g>
</svg>
